<svg id="Layer_1" data-name="Layer 1" xmlns="http://www.w3.org/2000/svg" viewBox="0 0 633.85 503.11"><defs><style>.cls-1,.cls-10,.cls-11,.cls-12,.cls-13,.cls-14,.cls-15,.cls-16,.cls-17,.cls-18,.cls-19,.cls-2,.cls-20,.cls-21,.cls-22,.cls-23,.cls-24,.cls-25,.cls-26,.cls-27,.cls-28,.cls-29,.cls-3,.cls-30,.cls-31,.cls-32,.cls-4,.cls-5,.cls-6,.cls-7,.cls-8,.cls-9{fill:none;stroke-miterlimit:10;}.cls-1{stroke:#dc3330;stroke-width:0.75px;}.cls-2{stroke:#d23431;stroke-width:0.82px;}.cls-3{stroke:#ca3631;stroke-width:0.9px;}.cls-4{stroke:#c23732;stroke-width:0.97px;}.cls-5{stroke:#ba3733;stroke-width:1.04px;}.cls-6{stroke:#b33833;stroke-width:1.11px;}.cls-7{stroke:#ab3834;stroke-width:1.19px;}.cls-8{stroke:#a43834;stroke-width:1.26px;}.cls-9{stroke:#9c3835;stroke-width:1.33px;}.cls-10{stroke:#953835;stroke-width:1.4px;}.cls-11{stroke:#8e3835;stroke-width:1.48px;}.cls-12{stroke:#873735;stroke-width:1.55px;}.cls-13{stroke:#803735;stroke-width:1.62px;}.cls-14{stroke:#793635;stroke-width:1.69px;}.cls-15{stroke:#733535;stroke-width:1.77px;}.cls-16{stroke:#6c3435;stroke-width:1.84px;}.cls-17{stroke:#663335;stroke-width:1.91px;}.cls-18{stroke:#603234;stroke-width:1.98px;}.cls-19{stroke:#5a3134;stroke-width:2.06px;}.cls-20{stroke:#543033;stroke-width:2.13px;}.cls-21{stroke:#4e2f33;stroke-width:2.2px;}.cls-22{stroke:#492e32;stroke-width:2.27px;}.cls-23{stroke:#432c32;stroke-width:2.35px;}.cls-24{stroke:#3d2b31;stroke-width:2.42px;}.cls-25{stroke:#382930;stroke-width:2.49px;}.cls-26{stroke:#32282f;stroke-width:2.56px;}.cls-27{stroke:#2c262e;stroke-width:2.64px;}.cls-28{stroke:#26242d;stroke-width:2.71px;}.cls-29{stroke:#20232c;stroke-width:2.78px;}.cls-30{stroke:#19212a;stroke-width:2.85px;}.cls-31{stroke:#111f29;stroke-width:2.93px;}.cls-32{stroke:#081d28;stroke-width:3px;}</style></defs><title>translucent-logo</title><path class="cls-1" d="M354.48,276.85a0.79,0.79,0,0,1,.26.56,0.65,0.65,0,0,1-.24.53,1,1,0,0,1-.55.22,0.69,0.69,0,0,1-.52-0.17,0.85,0.85,0,0,1-.25-0.54,0.76,0.76,0,0,1,.17-0.58,0.73,0.73,0,0,1,.54-0.23A0.84,0.84,0,0,1,354.48,276.85Z" transform="translate(-54.24 -52.38)"/><path class="cls-2" d="M347.15,271.1c0.14-.15,9.8-4.29,9.43,1.18-0.11,1.59,2.34,2.38,4.65,3.36,2.15,0.91,4.2,2,4.22,3.94,0,1.5-2.76,4-5.85,5.64s-6.45,2.57-7.49,1c-1.61-2.49-2.85-3.37-3.9-3.64-1.91-.48-3.09,1.41-4.23-2.7C342.23,273.63,347,271.25,347.15,271.1Z" transform="translate(-54.24 -52.38)"/><path class="cls-3" d="M340.93,265.35c0.13-.14,19.51-8.32,18.32,2.59-0.35,3.18,4.26,4.69,8.71,6.49,4.13,1.68,8.15,3.61,8.18,7.31,0,2.81-5.45,7.54-11.46,10.75s-12.52,4.92-14.44,1.69c-3-5-5.32-6.68-7.28-7.11-3.69-.8-5.94,3.15-8.21-4.86C331.29,270,340.8,265.5,340.93,265.35Z" transform="translate(-54.24 -52.38)"/><path class="cls-4" d="M334.71,259.6c0.13-.14,29.21-12.36,27.21,4-0.59,4.78,6.19,7,12.78,9.62,6.12,2.44,12.1,5.23,12.15,10.69,0,4.11-8.14,11.11-17.07,15.86S351.2,307,348.39,302.2c-4.37-7.55-7.79-10-10.67-10.57-5.47-1.11-8.8,4.9-12.19-7C320.35,266.43,334.58,259.74,334.71,259.6Z" transform="translate(-54.24 -52.38)"/><path class="cls-5" d="M328.49,253.85c0.12-.13,38.92-16.39,36.1,5.41-0.83,6.37,8.11,9.3,16.85,12.75,8.1,3.2,16,6.85,16.11,14.07,0,5.41-10.83,14.68-22.68,21s-24.65,9.63-28.33,3.17c-5.75-10.07-10.27-13.3-14.05-14-7.25-1.42-11.66,6.64-16.17-9.17C309.41,262.84,328.37,254,328.49,253.85Z" transform="translate(-54.24 -52.38)"/><path class="cls-6" d="M322.27,248.1c0.12-.13,48.62-20.42,45,6.82-1.06,8,10,11.6,20.92,15.88,10.08,4,20,8.48,20.07,17.44,0.06,6.71-13.52,18.25-28.29,26.09s-30.71,12-35.28,3.91c-7.13-12.6-12.74-16.61-17.44-17.51-9-1.74-14.52,8.38-20.15-11.33C298.47,259.24,322.16,248.23,322.27,248.1Z" transform="translate(-54.24 -52.38)"/><path class="cls-7" d="M316.06,242.35c0.11-.12,58.33-24.45,53.88,8.23-1.3,9.56,12,13.91,25,19,12.07,4.73,23.94,10.1,24,20.82,0.07,8-16.21,21.82-33.9,31.2s-36.78,14.33-42.23,4.65c-8.5-15.13-15.22-19.92-20.82-21-10.82-2-17.37,10.12-24.13-13.49C287.53,255.64,315.94,242.48,316.06,242.35Z" transform="translate(-54.24 -52.38)"/><path class="cls-8" d="M309.84,236.6c0.11-.12,68-28.48,62.77,9.64-1.54,11.16,13.89,16.22,29.06,22.14,14.05,5.49,27.89,11.72,28,24.2,0.08,9.32-18.9,25.4-39.51,36.31s-42.83,16.67-49.17,5.39c-9.85-17.67-17.69-23.22-24.2-24.44-12.6-2.36-20.23,11.86-28.11-15.65C276.59,252,309.73,236.72,309.84,236.6Z" transform="translate(-54.24 -52.38)"/><path class="cls-9" d="M303.62,230.85c0.11-.11,77.74-32.51,71.66,11-1.78,12.76,15.82,18.52,33.13,25.27,16,6.25,31.84,13.35,32,27.57,0.09,10.62-21.59,29-45.13,41.42s-48.89,19-56.12,6.13c-11.23-20.2-20.16-26.53-27.59-27.91-14.38-2.67-23.09,13.61-32.09-17.81C265.65,248.44,303.52,231,303.62,230.85Z" transform="translate(-54.24 -52.38)"/><path class="cls-10" d="M297.4,225.1c0.1-.11,87.45-36.54,80.55,12.46-2,14.35,17.74,20.83,37.2,28.4,18,7,35.79,15,35.93,30.95,0.11,11.92-24.28,32.54-50.74,46.53s-55,21.38-63.06,6.86c-12.61-22.72-22.64-29.84-31-31.38-16.16-3-25.95,15.35-36.07-20C254.71,244.84,297.3,225.21,297.4,225.1Z" transform="translate(-54.24 -52.38)"/><path class="cls-11" d="M291.19,219.35c0.1-.1,97.15-40.57,89.44,13.87-2.26,15.95,19.67,23.14,41.27,31.53,20,7.78,39.73,16.6,39.89,34.33,0.12,13.22-27,36.11-56.35,51.65s-61,23.73-70,7.6c-14-25.25-25.11-33.13-34.36-34.85-17.95-3.27-28.8,17.09-40.05-22.12C243.77,241.25,291.09,219.45,291.19,219.35Z" transform="translate(-54.24 -52.38)"/><path class="cls-12" d="M285,213.6c0.09-.1,106.86-44.6,98.33,15.28-2.5,17.54,21.6,25.44,45.34,34.66,22,8.54,43.68,18.22,43.85,37.7,0.13,14.52-29.65,39.68-62,56.76s-67.09,26.08-77,8.34C318.21,338.56,306,329.9,295.84,328c-19.73-3.58-31.66,18.83-44-24.28C232.82,237.65,284.88,213.7,285,213.6Z" transform="translate(-54.24 -52.38)"/><path class="cls-13" d="M278.75,207.85c0.09-.09,116.56-48.64,107.22,16.69-2.74,19.14,23.52,27.75,49.41,37.79,24,9.31,47.63,19.84,47.82,41.08,0.14,15.83-32.34,43.25-67.57,61.87s-73.16,28.44-83.9,9.08c-16.75-30.3-30.06-39.75-41.12-41.78-21.51-3.9-34.52,20.58-48-26.44C221.88,234,278.66,207.94,278.75,207.85Z" transform="translate(-54.24 -52.38)"/><path class="cls-14" d="M272.53,202.09c0.08-.09,126.41-52.65,116.11,18.1-2.94,20.74,25.45,30.05,53.48,40.93,26,10.07,51.58,21.47,51.78,44.45,0.15,17.13-35,46.82-73.18,67s-79.23,30.79-90.85,9.82c-18.13-32.83-32.54-43.06-44.51-45.25-23.29-4.21-37.38,22.32-52-28.59C210.94,230.45,272.45,202.18,272.53,202.09Z" transform="translate(-54.24 -52.38)"/><path class="cls-15" d="M266.31,196.34c0.08-.08,136.1-56.68,125,19.51-3.18,22.34,27.38,32.36,57.55,44.06,27.94,10.83,55.53,23.09,55.74,47.83,0.16,18.43-37.72,50.39-78.79,72.09S340.52,413,328,390.39C308.51,355,293,344,280.13,341.67c-25.07-4.52-40.24,24.06-56-30.75C200,226.85,266.24,196.43,266.31,196.34Z" transform="translate(-54.24 -52.38)"/><path class="cls-16" d="M260.1,190.59c0.07-.08,145.8-60.71,133.88,20.92-3.42,23.93,29.3,34.67,61.62,47.19,29.92,11.59,59.48,24.71,59.71,51.21,0.17,19.73-40.41,54-84.4,77.2s-91.36,35.49-104.74,11.3c-20.89-37.88-37.48-49.68-51.28-52.19-26.85-4.84-43.09,25.8-60-32.91C189.06,223.25,260,190.67,260.1,190.59Z" transform="translate(-54.24 -52.38)"/><path class="cls-17" d="M253.88,184.84c0.07-.07,155.5-64.74,142.77,22.33-3.66,25.53,31.23,37,65.69,50.32,31.9,12.36,63.42,26.34,63.67,54.58,0.18,21-43.1,57.53-90,82.31s-97.43,37.85-111.69,12c-22.27-40.41-40-53-54.66-55.66-28.63-5.15-46,27.55-63.94-35.07C178.12,219.66,253.81,184.92,253.88,184.84Z" transform="translate(-54.24 -52.38)"/><path class="cls-18" d="M247.66,179.09c0.06-.07,165.2-68.77,151.66,23.74-3.9,27.12,33.15,39.28,69.76,53.45,33.89,13.12,67.37,28,67.63,58,0.2,22.34-45.79,61.1-95.63,87.43s-103.5,40.2-118.63,12.77c-23.65-42.93-42.43-56.3-58-59.12-30.41-5.47-48.81,29.29-67.92-37.23C167.18,216.06,247.6,179.16,247.66,179.09Z" transform="translate(-54.24 -52.38)"/><path class="cls-19" d="M241.44,173.34c0.06-.06,174.89-72.81,160.55,25.15-4.14,28.72,35.08,41.58,73.83,56.58,35.87,13.88,71.32,29.58,71.6,61.34,0.21,23.64-48.48,64.68-101.24,92.54s-109.56,42.55-125.58,13.51c-25-45.46-44.9-59.6-61.43-62.59-32.19-5.78-51.67,31-71.9-39.38C156.24,212.46,241.38,173.41,241.44,173.34Z" transform="translate(-54.24 -52.38)"/><path class="cls-20" d="M235.23,167.59c0.05-.06,184.59-76.84,169.44,26.56-4.39,30.32,37,43.89,77.9,59.71,37.86,14.65,75.27,31.21,75.56,64.71,0.22,24.94-51.17,68.25-106.85,97.65s-115.63,44.9-132.53,14.25c-26.41-48-47.38-62.91-64.81-66.06-34-6.09-54.52,32.77-75.88-41.54C145.3,208.86,235.17,167.65,235.23,167.59Z" transform="translate(-54.24 -52.38)"/><path class="cls-21" d="M229,161.84c0.05-.05,194.29-80.87,178.33,28-4.63,31.91,38.93,46.2,82,62.84,39.84,15.41,79.22,32.83,79.52,68.09C569.07,347,515,392.56,456.38,423.5s-121.7,47.26-139.47,15C289.12,388,267.05,372.27,248.71,369c-35.76-6.41-57.38,34.52-79.86-43.7C134.36,205.26,229,161.89,229,161.84Z" transform="translate(-54.24 -52.38)"/><path class="cls-22" d="M222.79,156.09s204-84.9,187.22,29.38c-4.87,33.51,40.86,48.5,86,66,41.82,16.17,83.16,34.45,83.49,71.47,0.24,27.54-56.55,75.39-118.07,107.87s-127.76,49.61-146.42,15.73c-29.17-53-52.33-69.53-71.58-73-37.54-6.72-60.24,36.26-83.84-45.86C123.42,201.66,222.74,156.14,222.79,156.09Z" transform="translate(-54.24 -52.38)"/><path class="cls-23" d="M216.57,150.34S430.26,61.4,412.69,181.13c-5.11,35.1,42.78,50.81,90.11,69.1,43.81,16.93,87.11,36.08,87.45,74.84,0.25,28.85-59.24,79-123.68,113S332.73,490,313.2,454.52c-30.55-55.56-54.8-72.84-75-76.46-39.32-7-63.1,38-87.82-48C112.48,198.07,216.53,150.38,216.57,150.34Z" transform="translate(-54.24 -52.38)"/><path class="cls-24" d="M210.35,144.59s223.38-93,205,32.2C410,213.48,460.07,229.9,509.54,249c45.79,17.7,91.06,37.7,91.41,78.22,0.26,30.15-61.93,82.53-129.29,118.1s-139.9,54.31-160.31,17.21c-31.93-58.09-57.27-76.15-78.35-79.93-41.1-7.35-66,39.74-91.8-50.17C101.54,194.47,210.32,144.63,210.35,144.59Z" transform="translate(-54.24 -52.38)"/><path class="cls-25" d="M204.14,138.84s233.08-97,213.89,33.61c-5.59,38.29,46.64,55.42,98.25,75.36,47.77,18.46,95,39.33,95.38,81.59,0.27,31.45-64.61,86.1-134.9,123.21s-146,56.67-167.26,17.94c-33.31-60.62-59.75-79.46-81.73-83.4C184.88,379.49,159,428.64,132,334.83,90.6,190.87,204.11,138.87,204.14,138.84Z" transform="translate(-54.24 -52.38)"/><path class="cls-26" d="M197.92,133.08s242.78-101,222.78,35C414.87,208,469.26,225.83,523,246.6c49.76,19.22,99,40.95,99.34,85,0.29,32.75-67.3,89.67-140.52,128.32s-152,59-174.2,18.68c-34.69-63.14-62.22-82.77-85.11-86.87-44.66-8-71.67,43.23-99.76-54.49C79.66,187.27,197.89,133.11,197.92,133.08Z" transform="translate(-54.24 -52.38)"/><path class="cls-27" d="M191.7,127.33S444.18,22.27,423.37,163.77c-6.08,41.48,50.49,60,106.39,81.62,51.74,20,102.9,42.57,103.3,88.35,0.3,34.05-70,93.24-146.13,133.43s-158.1,61.37-181.15,19.42c-36.07-65.67-64.69-86.08-88.5-90.34-46.44-8.29-74.53,45-103.74-56.65C68.72,183.67,191.68,127.36,191.7,127.33Z" transform="translate(-54.24 -52.38)"/><path class="cls-28" d="M185.48,121.58S447.66,12.49,426,159.43c-6.32,43.08,52.42,62.34,110.46,84.76,53.72,20.75,106.85,44.2,107.27,91.72,0.31,35.35-72.68,96.81-151.74,138.54s-164.17,63.72-188.1,20.16c-37.45-68.2-67.17-89.39-91.88-93.8-48.22-8.61-77.39,46.71-107.72-58.8C57.78,180.07,185.47,121.6,185.48,121.58Z" transform="translate(-54.24 -52.38)"/><path class="cls-29" d="M179.27,115.83S451.14,2.71,428.72,155.08c-6.56,44.68,54.34,64.65,114.53,87.89C599,264.48,654,288.79,654.48,338.07c0.32,36.66-75.37,100.38-157.35,143.65s-170.23,66.08-195,20.9c-38.82-70.72-69.64-92.7-95.27-97.27-50-8.92-80.24,48.46-111.7-61C46.84,176.48,179.25,115.85,179.27,115.83Z" transform="translate(-54.24 -52.38)"/><path class="cls-30" d="M173,110.08S454.61-7.07,431.39,150.74c-6.8,46.27,56.27,67,118.6,91C607.68,264,664.74,289.2,665.18,340.24c0.33,38-78.06,104-163,148.76s-176.3,68.43-202,21.64c-40.2-73.25-72.11-96-98.65-100.74-51.78-9.23-83.1,50.2-115.68-63.12C35.9,172.88,173,110.09,173,110.08Z" transform="translate(-54.24 -52.38)"/><path class="cls-31" d="M166.83,104.33S458.09-16.86,434.06,146.4c-7,47.87,58.19,69.26,122.67,94.15,59.68,23,118.7,49.07,119.16,101.85,0.34,39.26-80.75,107.53-168.57,153.88s-182.37,70.78-208.93,22.38c-41.58-75.77-74.59-99.31-102-104.21-53.56-9.55-86,51.94-119.66-65.28C25,169.28,166.83,104.34,166.83,104.33Z" transform="translate(-54.24 -52.38)"/><path class="cls-32" d="M160.61,98.58s301-125.22,276.12,43.48c-14,95.24,248.87,89,249.86,202.51,0.35,40.56-83.44,111.1-174.18,159S324,576.69,296.53,526.67C169.71,295.55,120.14,534.74,67.47,351.57,14,165.68,160.61,98.58,160.61,98.58Z" transform="translate(-54.24 -52.38)"/></svg>